<svg xmlns="http://www.w3.org/2000/svg" viewBox="0 0 1200 600" width="1200" height="600" preserveAspectRatio="xMidYMid slice" role="img" aria-label="Animated wave field">
  <defs>
    <linearGradient id="grad" x1="0" y1="0" x2="1" y2="0">
      <stop class="c" offset="0%"   stop-opacity="1"/>
      <stop class="c" offset="35%"  stop-opacity="1"/>
      <stop class="c" offset="70%"  stop-opacity="1"/>
      <stop class="c" offset="100%" stop-opacity="1"/>
    </linearGradient>
    <filter id="glow" x="-20%" y="-20%" width="140%" height="140%">
      <feGaussianBlur stdDeviation="2.2" result="b"/>
      <feMerge>
        <feMergeNode in="b"/>
        <feMergeNode in="SourceGraphic"/>
      </feMerge>
    </filter>
  </defs>

  <style>
    svg { --wave-color: #004079; }
    #grad .c { stop-color: var(--wave-color); }
    @keyframes flow {
      from { transform: translateX(calc(0.5 * var(--wl))); }
      to   { transform: translateX(calc(-0.5 * var(--wl))); }
    }
    .ln {
      animation-name: flow;
      animation-timing-function: linear;
      animation-iteration-count: infinite;
      will-change: transform;
    }
    .field { filter: url(#glow); }
    @media (prefers-reduced-motion: reduce) {
      .ln { animation: none; }
    }
  </style>

  <g class="field">
    <g class="ln" style="--wl:668px; animation-duration:21.5s; animation-delay:-7.2s;"><path d="M -400.0,184.2 L -392.0,181.3 L -384.0,178.6 L -376.0,176.2 L -368.0,174.2 L -360.0,172.6 L -352.0,171.6 L -344.0,171.2 L -336.0,171.5 L -328.0,172.5 L -320.0,174.3 L -312.0,176.8 L -304.0,180.2 L -296.0,184.4 L -288.0,189.4 L -280.0,195.2 L -272.0,201.7 L -264.0,209.0 L -256.0,216.8 L -248.0,225.2 L -240.0,234.0 L -232.0,243.2 L -224.0,252.6 L -216.0,262.1 L -208.0,271.6 L -200.0,281.0 L -192.0,290.2 L -184.0,299.0 L -176.0,307.3 L -168.0,315.0 L -160.0,322.1 L -152.0,328.3 L -144.0,333.8 L -136.0,338.3 L -128.0,341.9 L -120.0,344.4 L -112.0,346.0 L -104.0,346.6 L -96.0,346.2 L -88.0,344.8 L -80.0,342.6 L -72.0,339.5 L -64.0,335.6 L -56.0,331.0 L -48.0,325.8 L -40.0,320.0 L -32.0,313.9 L -24.0,307.5 L -16.0,300.8 L -8.0,294.0 L 0.0,287.3 L 8.0,280.6 L 16.0,274.1 L 24.0,267.8 L 32.0,261.8 L 40.0,256.2 L 48.0,251.0 L 56.0,246.3 L 64.0,241.9 L 72.0,238.1 L 80.0,234.7 L 88.0,231.7 L 96.0,229.1 L 104.0,226.8 L 112.0,224.9 L 120.0,223.3 L 128.0,221.8 L 136.0,220.5 L 144.0,219.2 L 152.0,218.0 L 160.0,216.8 L 168.0,215.4 L 176.0,213.9 L 184.0,212.3 L 192.0,210.5 L 200.0,208.4 L 208.0,206.1 L 216.0,203.6 L 224.0,200.9 L 232.0,198.1 L 240.0,195.1 L 248.0,192.0 L 256.0,188.8 L 264.0,185.7 L 272.0,182.7 L 280.0,179.9 L 288.0,177.3 L 296.0,175.1 L 304.0,173.3 L 312.0,172.1 L 320.0,171.3 L 328.0,171.3 L 336.0,171.9 L 344.0,173.3 L 352.0,175.4 L 360.0,178.4 L 368.0,182.2 L 376.0,186.8 L 384.0,192.2 L 392.0,198.4 L 400.0,205.3 L 408.0,212.8 L 416.0,220.9 L 424.0,229.6 L 432.0,238.6 L 440.0,247.9 L 448.0,257.4 L 456.0,266.9 L 464.0,276.4 L 472.0,285.7 L 480.0,294.6 L 488.0,303.2 L 496.0,311.2 L 504.0,318.6 L 512.0,325.3 L 520.0,331.2 L 528.0,336.2 L 536.0,340.2 L 544.0,343.3 L 552.0,345.4 L 560.0,346.4 L 568.0,346.5 L 576.0,345.6 L 584.0,343.8 L 592.0,341.1 L 600.0,337.6 L 608.0,333.3 L 616.0,328.4 L 624.0,323.0 L 632.0,317.0 L 640.0,310.7 L 648.0,304.1 L 656.0,297.4 L 664.0,290.7 L 672.0,283.9 L 680.0,277.3 L 688.0,270.9 L 696.0,264.8 L 704.0,259.0 L 712.0,253.6 L 720.0,248.6 L 728.0,244.0 L 736.0,239.9 L 744.0,236.3 L 752.0,233.1 L 760.0,230.3 L 768.0,227.9 L 776.0,225.8 L 784.0,224.1 L 792.0,222.5 L 800.0,221.1 L 808.0,219.8 L 816.0,218.6 L 824.0,217.4 L 832.0,216.1 L 840.0,214.7 L 848.0,213.1 L 856.0,211.4 L 864.0,209.5 L 872.0,207.3 L 880.0,204.9 L 888.0,202.3 L 896.0,199.5 L 904.0,196.6 L 912.0,193.5 L 920.0,190.4 L 928.0,187.3 L 936.0,184.2 L 944.0,181.3 L 952.0,178.6 L 960.0,176.2 L 968.0,174.2 L 976.0,172.6 L 984.0,171.6 L 992.0,171.2 L 1000.0,171.5 L 1008.0,172.5 L 1016.0,174.3 L 1024.0,176.8 L 1032.0,180.2 L 1040.0,184.4 L 1048.0,189.4 L 1056.0,195.2 L 1064.0,201.7 L 1072.0,209.0 L 1080.0,216.8 L 1088.0,225.2 L 1096.0,234.0 L 1104.0,243.2 L 1112.0,252.6 L 1120.0,262.1 L 1128.0,271.7 L 1136.0,281.1 L 1144.0,290.2 L 1152.0,299.0 L 1160.0,307.3 L 1168.0,315.0 L 1176.0,322.1 L 1184.0,328.3 L 1192.0,333.8 L 1200.0,338.3 L 1208.0,341.9 L 1216.0,344.5 L 1224.0,346.0 L 1232.0,346.6 L 1240.0,346.2 L 1248.0,344.8 L 1256.0,342.6 L 1264.0,339.5 L 1272.0,335.6 L 1280.0,331.0 L 1288.0,325.8 L 1296.0,320.0 L 1304.0,313.9 L 1312.0,307.4 L 1320.0,300.8 L 1328.0,294.0 L 1336.0,287.3 L 1344.0,280.6 L 1352.0,274.1 L 1360.0,267.8 L 1368.0,261.8 L 1376.0,256.2 L 1384.0,251.0 L 1392.0,246.3 L 1400.0,241.9 L 1408.0,238.1 L 1416.0,234.7 L 1424.0,231.7 L 1432.0,229.1 L 1440.0,226.8 L 1448.0,224.9 L 1456.0,223.3 L 1464.0,221.8 L 1472.0,220.5 L 1480.0,219.2 L 1488.0,218.0 L 1496.0,216.8 L 1504.0,215.4 L 1512.0,213.9 L 1520.0,212.3 L 1528.0,210.5 L 1536.0,208.4 L 1544.0,206.1 L 1552.0,203.6 L 1560.0,200.9 L 1568.0,198.1 L 1576.0,195.1 L 1584.0,191.9 L 1592.0,188.8 L 1600.0,185.7" stroke="url(#grad)" stroke-width="2.30" fill="none" opacity="1" stroke-linecap="round"/></g>
    <g class="ln" style="--wl:675px; animation-duration:24.0s; animation-delay:-8.1s;"><path d="M -400.0,194.8 L -392.0,193.3 L -384.0,192.3 L -376.0,192.0 L -368.0,192.3 L -360.0,193.3 L -352.0,195.0 L -344.0,197.5 L -336.0,200.9 L -328.0,205.0 L -320.0,209.9 L -312.0,215.6 L -304.0,222.1 L -296.0,229.3 L -288.0,237.1 L -280.0,245.4 L -272.0,254.2 L -264.0,263.4 L -256.0,272.9 L -248.0,282.5 L -240.0,292.1 L -232.0,301.7 L -224.0,311.0 L -216.0,320.0 L -208.0,328.6 L -200.0,336.6 L -192.0,344.0 L -184.0,350.6 L -176.0,356.4 L -168.0,361.3 L -160.0,365.3 L -152.0,368.2 L -144.0,370.2 L -136.0,371.1 L -128.0,371.1 L -120.0,370.0 L -112.0,368.0 L -104.0,365.1 L -96.0,361.4 L -88.0,356.9 L -80.0,351.8 L -72.0,346.1 L -64.0,339.9 L -56.0,333.3 L -48.0,326.4 L -40.0,319.4 L -32.0,312.3 L -24.0,305.3 L -16.0,298.3 L -8.0,291.6 L 0.0,285.1 L 8.0,279.0 L 16.0,273.2 L 24.0,267.9 L 32.0,263.1 L 40.0,258.7 L 48.0,254.8 L 56.0,251.4 L 64.0,248.4 L 72.0,245.8 L 80.0,243.6 L 88.0,241.7 L 96.0,240.1 L 104.0,238.7 L 112.0,237.5 L 120.0,236.4 L 128.0,235.3 L 136.0,234.1 L 144.0,232.9 L 152.0,231.6 L 160.0,230.1 L 168.0,228.4 L 176.0,226.6 L 184.0,224.5 L 192.0,222.2 L 200.0,219.7 L 208.0,217.0 L 216.0,214.2 L 224.0,211.3 L 232.0,208.3 L 240.0,205.4 L 248.0,202.6 L 256.0,200.0 L 264.0,197.6 L 272.0,195.5 L 280.0,193.9 L 288.0,192.7 L 296.0,192.1 L 304.0,192.1 L 312.0,192.8 L 320.0,194.2 L 328.0,196.4 L 336.0,199.4 L 344.0,203.2 L 352.0,207.8 L 360.0,213.2 L 368.0,219.3 L 376.0,226.2 L 384.0,233.8 L 392.0,241.9 L 400.0,250.5 L 408.0,259.6 L 416.0,268.9 L 424.0,278.5 L 432.0,288.1 L 440.0,297.7 L 448.0,307.2 L 456.0,316.3 L 464.0,325.1 L 472.0,333.4 L 480.0,341.0 L 488.0,347.9 L 496.0,354.1 L 504.0,359.4 L 512.0,363.7 L 520.0,367.1 L 528.0,369.5 L 536.0,370.9 L 544.0,371.2 L 552.0,370.6 L 560.0,369.0 L 568.0,366.5 L 576.0,363.1 L 584.0,358.9 L 592.0,354.0 L 600.0,348.5 L 608.0,342.5 L 616.0,336.1 L 624.0,329.3 L 632.0,322.3 L 640.0,315.3 L 648.0,308.2 L 656.0,301.2 L 664.0,294.3 L 672.0,287.8 L 680.0,281.5 L 688.0,275.6 L 696.0,270.1 L 704.0,265.0 L 712.0,260.5 L 720.0,256.4 L 728.0,252.8 L 736.0,249.6 L 744.0,246.8 L 752.0,244.5 L 760.0,242.5 L 768.0,240.8 L 776.0,239.3 L 784.0,238.0 L 792.0,236.8 L 800.0,235.7 L 808.0,234.6 L 816.0,233.4 L 824.0,232.2 L 832.0,230.7 L 840.0,229.2 L 848.0,227.4 L 856.0,225.4 L 864.0,223.2 L 872.0,220.7 L 880.0,218.1 L 888.0,215.4 L 896.0,212.5 L 904.0,209.6 L 912.0,206.6 L 920.0,203.8 L 928.0,201.0 L 936.0,198.5 L 944.0,196.3 L 952.0,194.5 L 960.0,193.1 L 968.0,192.2 L 976.0,192.0 L 984.0,192.4 L 992.0,193.5 L 1000.0,195.4 L 1008.0,198.0 L 1016.0,201.5 L 1024.0,205.8 L 1032.0,210.8 L 1040.0,216.7 L 1048.0,223.3 L 1056.0,230.5 L 1064.0,238.4 L 1072.0,246.9 L 1080.0,255.8 L 1088.0,265.0 L 1096.0,274.5 L 1104.0,284.1 L 1112.0,293.7 L 1120.0,303.3 L 1128.0,312.6 L 1136.0,321.5 L 1144.0,330.0 L 1152.0,337.9 L 1160.0,345.1 L 1168.0,351.6 L 1176.0,357.3 L 1184.0,362.0 L 1192.0,365.8 L 1200.0,368.6 L 1208.0,370.4 L 1216.0,371.2 L 1224.0,371.0 L 1232.0,369.8 L 1240.0,367.6 L 1248.0,364.6 L 1256.0,360.7 L 1264.0,356.1 L 1272.0,350.9 L 1280.0,345.1 L 1288.0,338.8 L 1296.0,332.2 L 1304.0,325.3 L 1312.0,318.2 L 1320.0,311.1 L 1328.0,304.1 L 1336.0,297.2 L 1344.0,290.5 L 1352.0,284.0 L 1360.0,278.0 L 1368.0,272.3 L 1376.0,267.1 L 1384.0,262.3 L 1392.0,258.0 L 1400.0,254.2 L 1408.0,250.8 L 1416.0,247.9 L 1424.0,245.4 L 1432.0,243.3 L 1440.0,241.4 L 1448.0,239.9 L 1456.0,238.5 L 1464.0,237.3 L 1472.0,236.2 L 1480.0,235.1 L 1488.0,233.9 L 1496.0,232.7 L 1504.0,231.4 L 1512.0,229.8 L 1520.0,228.1 L 1528.0,226.2 L 1536.0,224.1 L 1544.0,221.8 L 1552.0,219.2 L 1560.0,216.5 L 1568.0,213.7 L 1576.0,210.8 L 1584.0,207.9 L 1592.0,205.0 L 1600.0,202.2" stroke="url(#grad)" stroke-width="2.36" fill="none" opacity="1" stroke-linecap="round"/></g>
    <g class="ln" style="--wl:679px; animation-duration:14.0s; animation-delay:-9.0s;"><path d="M -400.0,214.2 L -392.0,215.0 L -384.0,216.6 L -376.0,218.9 L -368.0,222.0 L -360.0,226.0 L -352.0,230.7 L -344.0,236.1 L -336.0,242.4 L -328.0,249.3 L -320.0,256.9 L -312.0,265.1 L -304.0,273.7 L -296.0,282.8 L -288.0,292.2 L -280.0,301.7 L -272.0,311.4 L -264.0,321.0 L -256.0,330.4 L -248.0,339.6 L -240.0,348.4 L -232.0,356.6 L -224.0,364.3 L -216.0,371.2 L -208.0,377.4 L -200.0,382.6 L -192.0,387.0 L -184.0,390.3 L -176.0,392.7 L -168.0,394.0 L -160.0,394.4 L -152.0,393.7 L -144.0,392.0 L -136.0,389.4 L -128.0,385.9 L -120.0,381.7 L -112.0,376.6 L -104.0,371.0 L -96.0,364.8 L -88.0,358.2 L -80.0,351.2 L -72.0,344.0 L -64.0,336.7 L -56.0,329.4 L -48.0,322.1 L -40.0,315.0 L -32.0,308.1 L -24.0,301.6 L -16.0,295.4 L -8.0,289.6 L 0.0,284.3 L 8.0,279.4 L 16.0,275.1 L 24.0,271.3 L 32.0,267.9 L 40.0,265.0 L 48.0,262.5 L 56.0,260.4 L 64.0,258.6 L 72.0,257.2 L 80.0,255.9 L 88.0,254.8 L 96.0,253.8 L 104.0,252.8 L 112.0,251.8 L 120.0,250.8 L 128.0,249.6 L 136.0,248.3 L 144.0,246.8 L 152.0,245.1 L 160.0,243.2 L 168.0,241.0 L 176.0,238.7 L 184.0,236.3 L 192.0,233.7 L 200.0,231.0 L 208.0,228.3 L 216.0,225.6 L 224.0,223.0 L 232.0,220.6 L 240.0,218.5 L 248.0,216.7 L 256.0,215.3 L 264.0,214.3 L 272.0,214.0 L 280.0,214.2 L 288.0,215.1 L 296.0,216.8 L 304.0,219.2 L 312.0,222.4 L 320.0,226.3 L 328.0,231.1 L 336.0,236.7 L 344.0,243.0 L 352.0,250.0 L 360.0,257.6 L 368.0,265.8 L 376.0,274.5 L 384.0,283.6 L 392.0,293.0 L 400.0,302.6 L 408.0,312.3 L 416.0,321.8 L 424.0,331.3 L 432.0,340.4 L 440.0,349.1 L 448.0,357.3 L 456.0,364.9 L 464.0,371.8 L 472.0,377.9 L 480.0,383.1 L 488.0,387.3 L 496.0,390.6 L 504.0,392.9 L 512.0,394.1 L 520.0,394.3 L 528.0,393.6 L 536.0,391.8 L 544.0,389.1 L 552.0,385.6 L 560.0,381.2 L 568.0,376.2 L 576.0,370.5 L 584.0,364.2 L 592.0,357.6 L 600.0,350.6 L 608.0,343.4 L 616.0,336.1 L 624.0,328.7 L 632.0,321.5 L 640.0,314.4 L 648.0,307.5 L 656.0,301.0 L 664.0,294.8 L 672.0,289.1 L 680.0,283.8 L 688.0,279.0 L 696.0,274.7 L 704.0,270.9 L 712.0,267.6 L 720.0,264.8 L 728.0,262.3 L 736.0,260.2 L 744.0,258.5 L 752.0,257.0 L 760.0,255.8 L 768.0,254.7 L 776.0,253.7 L 784.0,252.7 L 792.0,251.7 L 800.0,250.7 L 808.0,249.5 L 816.0,248.1 L 824.0,246.6 L 832.0,244.9 L 840.0,243.0 L 848.0,240.8 L 856.0,238.5 L 864.0,236.0 L 872.0,233.4 L 880.0,230.7 L 888.0,228.0 L 896.0,225.4 L 904.0,222.8 L 912.0,220.4 L 920.0,218.3 L 928.0,216.5 L 936.0,215.1 L 944.0,214.3 L 952.0,213.9 L 960.0,214.3 L 968.0,215.2 L 976.0,217.0 L 984.0,219.4 L 992.0,222.7 L 1000.0,226.7 L 1008.0,231.6 L 1016.0,237.2 L 1024.0,243.6 L 1032.0,250.6 L 1040.0,258.3 L 1048.0,266.6 L 1056.0,275.3 L 1064.0,284.5 L 1072.0,293.9 L 1080.0,303.5 L 1088.0,313.1 L 1096.0,322.7 L 1104.0,332.1 L 1112.0,341.2 L 1120.0,349.9 L 1128.0,358.0 L 1136.0,365.6 L 1144.0,372.4 L 1152.0,378.4 L 1160.0,383.5 L 1168.0,387.6 L 1176.0,390.8 L 1184.0,393.0 L 1192.0,394.2 L 1200.0,394.3 L 1208.0,393.4 L 1216.0,391.6 L 1224.0,388.9 L 1232.0,385.2 L 1240.0,380.8 L 1248.0,375.7 L 1256.0,369.9 L 1264.0,363.7 L 1272.0,357.0 L 1280.0,350.0 L 1288.0,342.7 L 1296.0,335.4 L 1304.0,328.1 L 1312.0,320.8 L 1320.0,313.7 L 1328.0,306.9 L 1336.0,300.4 L 1344.0,294.3 L 1352.0,288.6 L 1360.0,283.4 L 1368.0,278.6 L 1376.0,274.4 L 1384.0,270.6 L 1392.0,267.3 L 1400.0,264.5 L 1408.0,262.1 L 1416.0,260.1 L 1424.0,258.4 L 1432.0,256.9 L 1440.0,255.7 L 1448.0,254.6 L 1456.0,253.6 L 1464.0,252.6 L 1472.0,251.6 L 1480.0,250.6 L 1488.0,249.4 L 1496.0,248.0 L 1504.0,246.5 L 1512.0,244.7 L 1520.0,242.8 L 1528.0,240.6 L 1536.0,238.3 L 1544.0,235.8 L 1552.0,233.2 L 1560.0,230.5 L 1568.0,227.8 L 1576.0,225.1 L 1584.0,222.6 L 1592.0,220.2 L 1600.0,218.1" stroke="url(#grad)" stroke-width="2.40" fill="none" opacity="1" stroke-linecap="round"/></g>
    <g class="ln" style="--wl:680px; animation-duration:16.5s; animation-delay:-9.9s;"><path d="M -400.0,243.7 L -392.0,247.2 L -384.0,251.4 L -376.0,256.5 L -368.0,262.3 L -360.0,268.8 L -352.0,276.0 L -344.0,283.8 L -336.0,292.1 L -328.0,300.9 L -320.0,310.0 L -312.0,319.4 L -304.0,328.9 L -296.0,338.5 L -288.0,347.9 L -280.0,357.2 L -272.0,366.1 L -264.0,374.6 L -256.0,382.5 L -248.0,389.7 L -240.0,396.2 L -232.0,401.9 L -224.0,406.7 L -216.0,410.5 L -208.0,413.4 L -200.0,415.2 L -192.0,416.0 L -184.0,415.7 L -176.0,414.5 L -168.0,412.3 L -160.0,409.2 L -152.0,405.2 L -144.0,400.5 L -136.0,395.0 L -128.0,389.0 L -120.0,382.4 L -112.0,375.5 L -104.0,368.2 L -96.0,360.8 L -88.0,353.2 L -80.0,345.7 L -72.0,338.3 L -64.0,331.1 L -56.0,324.2 L -48.0,317.6 L -40.0,311.5 L -32.0,305.7 L -24.0,300.5 L -16.0,295.7 L -8.0,291.5 L 0.0,287.8 L 8.0,284.6 L 16.0,281.8 L 24.0,279.5 L 32.0,277.5 L 40.0,275.9 L 48.0,274.6 L 56.0,273.5 L 64.0,272.6 L 72.0,271.7 L 80.0,270.9 L 88.0,270.1 L 96.0,269.2 L 104.0,268.2 L 112.0,267.0 L 120.0,265.7 L 128.0,264.2 L 136.0,262.4 L 144.0,260.5 L 152.0,258.4 L 160.0,256.2 L 168.0,253.8 L 176.0,251.3 L 184.0,248.9 L 192.0,246.5 L 200.0,244.2 L 208.0,242.1 L 216.0,240.3 L 224.0,238.8 L 232.0,237.7 L 240.0,237.1 L 248.0,237.1 L 256.0,237.7 L 264.0,239.0 L 272.0,241.0 L 280.0,243.7 L 288.0,247.3 L 296.0,251.6 L 304.0,256.6 L 312.0,262.4 L 320.0,269.0 L 328.0,276.2 L 336.0,284.0 L 344.0,292.4 L 352.0,301.1 L 360.0,310.3 L 368.0,319.7 L 376.0,329.2 L 384.0,338.8 L 392.0,348.2 L 400.0,357.4 L 408.0,366.3 L 416.0,374.8 L 424.0,382.7 L 432.0,389.9 L 440.0,396.4 L 448.0,402.1 L 456.0,406.8 L 464.0,410.6 L 472.0,413.4 L 480.0,415.2 L 488.0,416.0 L 496.0,415.7 L 504.0,414.4 L 512.0,412.2 L 520.0,409.1 L 528.0,405.1 L 536.0,400.3 L 544.0,394.8 L 552.0,388.8 L 560.0,382.2 L 568.0,375.3 L 576.0,368.0 L 584.0,360.6 L 592.0,353.0 L 600.0,345.5 L 608.0,338.1 L 616.0,330.9 L 624.0,324.0 L 632.0,317.5 L 640.0,311.3 L 648.0,305.6 L 656.0,300.3 L 664.0,295.6 L 672.0,291.4 L 680.0,287.7 L 688.0,284.5 L 696.0,281.7 L 704.0,279.4 L 712.0,277.5 L 720.0,275.9 L 728.0,274.6 L 736.0,273.5 L 744.0,272.6 L 752.0,271.7 L 760.0,270.9 L 768.0,270.1 L 776.0,269.2 L 784.0,268.2 L 792.0,267.0 L 800.0,265.7 L 808.0,264.1 L 816.0,262.4 L 824.0,260.5 L 832.0,258.3 L 840.0,256.1 L 848.0,253.7 L 856.0,251.3 L 864.0,248.8 L 872.0,246.4 L 880.0,244.1 L 888.0,242.0 L 896.0,240.2 L 904.0,238.7 L 912.0,237.7 L 920.0,237.1 L 928.0,237.1 L 936.0,237.7 L 944.0,239.0 L 952.0,241.1 L 960.0,243.8 L 968.0,247.4 L 976.0,251.7 L 984.0,256.8 L 992.0,262.6 L 1000.0,269.2 L 1008.0,276.4 L 1016.0,284.2 L 1024.0,292.6 L 1032.0,301.4 L 1040.0,310.5 L 1048.0,319.9 L 1056.0,329.5 L 1064.0,339.0 L 1072.0,348.5 L 1080.0,357.7 L 1088.0,366.6 L 1096.0,375.0 L 1104.0,382.9 L 1112.0,390.1 L 1120.0,396.6 L 1128.0,402.2 L 1136.0,406.9 L 1144.0,410.7 L 1152.0,413.5 L 1160.0,415.2 L 1168.0,416.0 L 1176.0,415.7 L 1184.0,414.4 L 1192.0,412.1 L 1200.0,409.0 L 1208.0,405.0 L 1216.0,400.2 L 1224.0,394.7 L 1232.0,388.6 L 1240.0,382.0 L 1248.0,375.1 L 1256.0,367.8 L 1264.0,360.3 L 1272.0,352.8 L 1280.0,345.3 L 1288.0,337.9 L 1296.0,330.7 L 1304.0,323.8 L 1312.0,317.3 L 1320.0,311.1 L 1328.0,305.4 L 1336.0,300.2 L 1344.0,295.5 L 1352.0,291.3 L 1360.0,287.6 L 1368.0,284.4 L 1376.0,281.7 L 1384.0,279.4 L 1392.0,277.5 L 1400.0,275.9 L 1408.0,274.6 L 1416.0,273.5 L 1424.0,272.5 L 1432.0,271.7 L 1440.0,270.9 L 1448.0,270.0 L 1456.0,269.1 L 1464.0,268.1 L 1472.0,267.0 L 1480.0,265.6 L 1488.0,264.1 L 1496.0,262.3 L 1504.0,260.4 L 1512.0,258.3 L 1520.0,256.0 L 1528.0,253.6 L 1536.0,251.2 L 1544.0,248.8 L 1552.0,246.4 L 1560.0,244.1 L 1568.0,242.0 L 1576.0,240.2 L 1584.0,238.7 L 1592.0,237.7 L 1600.0,237.1" stroke="url(#grad)" stroke-width="2.40" fill="none" opacity="1" stroke-linecap="round"/></g>
    <g class="ln" style="--wl:677px; animation-duration:19.0s; animation-delay:-10.8s;"><path d="M -400.0,281.7 L -392.0,287.6 L -384.0,294.2 L -376.0,301.3 L -368.0,309.1 L -360.0,317.4 L -352.0,326.1 L -344.0,335.2 L -336.0,344.4 L -328.0,353.8 L -320.0,363.1 L -312.0,372.4 L -304.0,381.3 L -296.0,390.0 L -288.0,398.1 L -280.0,405.7 L -272.0,412.6 L -264.0,418.8 L -256.0,424.1 L -248.0,428.4 L -240.0,431.9 L -232.0,434.3 L -224.0,435.7 L -216.0,436.0 L -208.0,435.4 L -200.0,433.8 L -192.0,431.2 L -184.0,427.7 L -176.0,423.3 L -168.0,418.3 L -160.0,412.5 L -152.0,406.2 L -144.0,399.4 L -136.0,392.2 L -128.0,384.8 L -120.0,377.2 L -112.0,369.5 L -104.0,361.9 L -96.0,354.5 L -88.0,347.3 L -80.0,340.4 L -72.0,333.9 L -64.0,327.8 L -56.0,322.1 L -48.0,317.0 L -40.0,312.4 L -32.0,308.3 L -24.0,304.8 L -16.0,301.7 L -8.0,299.2 L 0.0,297.0 L 8.0,295.3 L 16.0,293.9 L 24.0,292.8 L 32.0,291.8 L 40.0,291.1 L 48.0,290.4 L 56.0,289.8 L 64.0,289.1 L 72.0,288.4 L 80.0,287.6 L 88.0,286.6 L 96.0,285.4 L 104.0,284.1 L 112.0,282.5 L 120.0,280.8 L 128.0,278.9 L 136.0,276.9 L 144.0,274.8 L 152.0,272.6 L 160.0,270.4 L 168.0,268.3 L 176.0,266.3 L 184.0,264.6 L 192.0,263.1 L 200.0,262.0 L 208.0,261.4 L 216.0,261.2 L 224.0,261.6 L 232.0,262.7 L 240.0,264.4 L 248.0,266.8 L 256.0,270.0 L 264.0,273.9 L 272.0,278.6 L 280.0,284.0 L 288.0,290.1 L 296.0,297.0 L 304.0,304.4 L 312.0,312.4 L 320.0,320.9 L 328.0,329.7 L 336.0,338.8 L 344.0,348.2 L 352.0,357.5 L 360.0,366.8 L 368.0,376.0 L 376.0,384.9 L 384.0,393.3 L 392.0,401.3 L 400.0,408.6 L 408.0,415.2 L 416.0,421.0 L 424.0,425.9 L 432.0,429.9 L 440.0,432.9 L 448.0,435.0 L 456.0,435.9 L 464.0,435.9 L 472.0,434.9 L 480.0,432.8 L 488.0,429.9 L 496.0,426.0 L 504.0,421.4 L 512.0,416.0 L 520.0,410.0 L 528.0,403.5 L 536.0,396.5 L 544.0,389.2 L 552.0,381.7 L 560.0,374.1 L 568.0,366.5 L 576.0,358.9 L 584.0,351.6 L 592.0,344.5 L 600.0,337.7 L 608.0,331.3 L 616.0,325.4 L 624.0,320.0 L 632.0,315.1 L 640.0,310.7 L 648.0,306.8 L 656.0,303.5 L 664.0,300.7 L 672.0,298.3 L 680.0,296.3 L 688.0,294.7 L 696.0,293.4 L 704.0,292.4 L 712.0,291.5 L 720.0,290.8 L 728.0,290.2 L 736.0,289.5 L 744.0,288.9 L 752.0,288.1 L 760.0,287.2 L 768.0,286.1 L 776.0,284.9 L 784.0,283.5 L 792.0,281.9 L 800.0,280.1 L 808.0,278.1 L 816.0,276.0 L 824.0,273.9 L 832.0,271.7 L 840.0,269.6 L 848.0,267.5 L 856.0,265.6 L 864.0,264.0 L 872.0,262.6 L 880.0,261.7 L 888.0,261.2 L 896.0,261.3 L 904.0,262.0 L 912.0,263.3 L 920.0,265.3 L 928.0,268.0 L 936.0,271.5 L 944.0,275.7 L 952.0,280.7 L 960.0,286.4 L 968.0,292.8 L 976.0,299.9 L 984.0,307.5 L 992.0,315.7 L 1000.0,324.4 L 1008.0,333.3 L 1016.0,342.6 L 1024.0,351.9 L 1032.0,361.3 L 1040.0,370.5 L 1048.0,379.6 L 1056.0,388.3 L 1064.0,396.6 L 1072.0,404.3 L 1080.0,411.3 L 1088.0,417.6 L 1096.0,423.1 L 1104.0,427.6 L 1112.0,431.3 L 1120.0,433.9 L 1128.0,435.5 L 1136.0,436.1 L 1144.0,435.6 L 1152.0,434.2 L 1160.0,431.7 L 1168.0,428.4 L 1176.0,424.3 L 1184.0,419.3 L 1192.0,413.7 L 1200.0,407.5 L 1208.0,400.7 L 1216.0,393.6 L 1224.0,386.2 L 1232.0,378.7 L 1240.0,371.0 L 1248.0,363.4 L 1256.0,356.0 L 1264.0,348.7 L 1272.0,341.7 L 1280.0,335.1 L 1288.0,328.9 L 1296.0,323.2 L 1304.0,318.0 L 1312.0,313.3 L 1320.0,309.1 L 1328.0,305.4 L 1336.0,302.3 L 1344.0,299.6 L 1352.0,297.4 L 1360.0,295.6 L 1368.0,294.1 L 1376.0,293.0 L 1384.0,292.0 L 1392.0,291.2 L 1400.0,290.5 L 1408.0,289.9 L 1416.0,289.3 L 1424.0,288.6 L 1432.0,287.7 L 1440.0,286.8 L 1448.0,285.7 L 1456.0,284.4 L 1464.0,282.9 L 1472.0,281.2 L 1480.0,279.3 L 1488.0,277.3 L 1496.0,275.2 L 1504.0,273.0 L 1512.0,270.8 L 1520.0,268.7 L 1528.0,266.7 L 1536.0,264.9 L 1544.0,263.4 L 1552.0,262.2 L 1560.0,261.5 L 1568.0,261.2 L 1576.0,261.5 L 1584.0,262.4 L 1592.0,264.0 L 1600.0,266.3" stroke="url(#grad)" stroke-width="2.36" fill="none" opacity="1" stroke-linecap="round"/></g>
    <g class="ln" style="--wl:670px; animation-duration:21.5s; animation-delay:-11.7s;"><path d="M -400.0,324.9 L -392.0,332.4 L -384.0,340.5 L -376.0,348.9 L -368.0,357.7 L -360.0,366.7 L -352.0,375.8 L -344.0,384.8 L -336.0,393.8 L -328.0,402.5 L -320.0,410.9 L -312.0,418.8 L -304.0,426.1 L -296.0,432.8 L -288.0,438.7 L -280.0,443.7 L -272.0,447.8 L -264.0,451.0 L -256.0,453.2 L -248.0,454.3 L -240.0,454.5 L -232.0,453.6 L -224.0,451.8 L -216.0,449.0 L -208.0,445.3 L -200.0,440.8 L -192.0,435.5 L -184.0,429.6 L -176.0,423.2 L -168.0,416.2 L -160.0,409.0 L -152.0,401.5 L -144.0,393.8 L -136.0,386.2 L -128.0,378.6 L -120.0,371.2 L -112.0,364.0 L -104.0,357.1 L -96.0,350.7 L -88.0,344.7 L -80.0,339.2 L -72.0,334.2 L -64.0,329.8 L -56.0,325.9 L -48.0,322.6 L -40.0,319.7 L -32.0,317.3 L -24.0,315.4 L -16.0,313.9 L -8.0,312.7 L 0.0,311.7 L 8.0,311.0 L 16.0,310.5 L 24.0,310.0 L 32.0,309.6 L 40.0,309.1 L 48.0,308.5 L 56.0,307.9 L 64.0,307.1 L 72.0,306.1 L 80.0,305.0 L 88.0,303.6 L 96.0,302.1 L 104.0,300.4 L 112.0,298.6 L 120.0,296.8 L 128.0,294.9 L 136.0,293.0 L 144.0,291.2 L 152.0,289.6 L 160.0,288.2 L 168.0,287.2 L 176.0,286.5 L 184.0,286.3 L 192.0,286.6 L 200.0,287.4 L 208.0,288.9 L 216.0,291.1 L 224.0,294.0 L 232.0,297.6 L 240.0,302.0 L 248.0,307.1 L 256.0,312.9 L 264.0,319.3 L 272.0,326.4 L 280.0,334.0 L 288.0,342.1 L 296.0,350.7 L 304.0,359.5 L 312.0,368.5 L 320.0,377.6 L 328.0,386.7 L 336.0,395.6 L 344.0,404.2 L 352.0,412.5 L 360.0,420.3 L 368.0,427.5 L 376.0,434.0 L 384.0,439.7 L 392.0,444.6 L 400.0,448.5 L 408.0,451.5 L 416.0,453.5 L 424.0,454.5 L 432.0,454.4 L 440.0,453.3 L 448.0,451.3 L 456.0,448.3 L 464.0,444.4 L 472.0,439.8 L 480.0,434.4 L 488.0,428.4 L 496.0,421.8 L 504.0,414.8 L 512.0,407.5 L 520.0,399.9 L 528.0,392.3 L 536.0,384.6 L 544.0,377.1 L 552.0,369.7 L 560.0,362.6 L 568.0,355.8 L 576.0,349.5 L 584.0,343.6 L 592.0,338.2 L 600.0,333.3 L 608.0,329.0 L 616.0,325.2 L 624.0,321.9 L 632.0,319.2 L 640.0,316.9 L 648.0,315.1 L 656.0,313.6 L 664.0,312.5 L 672.0,311.6 L 680.0,310.9 L 688.0,310.4 L 696.0,309.9 L 704.0,309.5 L 712.0,309.0 L 720.0,308.4 L 728.0,307.7 L 736.0,306.9 L 744.0,305.9 L 752.0,304.7 L 760.0,303.3 L 768.0,301.8 L 776.0,300.1 L 784.0,298.3 L 792.0,296.4 L 800.0,294.5 L 808.0,292.6 L 816.0,290.9 L 824.0,289.3 L 832.0,288.0 L 840.0,287.0 L 848.0,286.4 L 856.0,286.3 L 864.0,286.7 L 872.0,287.7 L 880.0,289.3 L 888.0,291.6 L 896.0,294.7 L 904.0,298.5 L 912.0,303.0 L 920.0,308.2 L 928.0,314.1 L 936.0,320.7 L 944.0,327.9 L 952.0,335.6 L 960.0,343.8 L 968.0,352.4 L 976.0,361.3 L 984.0,370.3 L 992.0,379.4 L 1000.0,388.5 L 1008.0,397.3 L 1016.0,405.9 L 1024.0,414.1 L 1032.0,421.8 L 1040.0,428.9 L 1048.0,435.2 L 1056.0,440.8 L 1064.0,445.5 L 1072.0,449.2 L 1080.0,452.0 L 1088.0,453.8 L 1096.0,454.5 L 1104.0,454.3 L 1112.0,453.0 L 1120.0,450.8 L 1128.0,447.6 L 1136.0,443.6 L 1144.0,438.7 L 1152.0,433.2 L 1160.0,427.1 L 1168.0,420.4 L 1176.0,413.4 L 1184.0,406.0 L 1192.0,398.4 L 1200.0,390.8 L 1208.0,383.1 L 1216.0,375.6 L 1224.0,368.2 L 1232.0,361.2 L 1240.0,354.5 L 1248.0,348.2 L 1256.0,342.4 L 1264.0,337.2 L 1272.0,332.4 L 1280.0,328.2 L 1288.0,324.5 L 1296.0,321.3 L 1304.0,318.7 L 1312.0,316.5 L 1320.0,314.7 L 1328.0,313.3 L 1336.0,312.3 L 1344.0,311.4 L 1352.0,310.8 L 1360.0,310.3 L 1368.0,309.8 L 1376.0,309.4 L 1384.0,308.9 L 1392.0,308.3 L 1400.0,307.6 L 1408.0,306.7 L 1416.0,305.7 L 1424.0,304.4 L 1432.0,303.0 L 1440.0,301.4 L 1448.0,299.7 L 1456.0,297.9 L 1464.0,296.0 L 1472.0,294.1 L 1480.0,292.3 L 1488.0,290.6 L 1496.0,289.0 L 1504.0,287.8 L 1512.0,286.8 L 1520.0,286.3 L 1528.0,286.3 L 1536.0,286.8 L 1544.0,288.0 L 1552.0,289.7 L 1560.0,292.2 L 1568.0,295.4 L 1576.0,299.3 L 1584.0,303.9 L 1592.0,309.3 L 1600.0,315.4" stroke="url(#grad)" stroke-width="2.30" fill="none" opacity="1" stroke-linecap="round"/></g>
  </g>
</svg>
